<svg width="22" height="22" viewBox="0 0 22 22" fill="none" xmlns="http://www.w3.org/2000/svg">
<g clip-path="url(#clip0)">
<path d="M22.0007 11.0677C22.0007 4.95449 17.0755 -0.00100708 11.0007 -0.00100708C4.92325 0.00036792 -0.0019989 4.95449 -0.0019989 11.0691C-0.0019989 16.5925 4.02125 21.1712 9.27925 22.0017V14.2674H6.488V11.0691H9.282V8.62849C9.282 5.85512 10.9251 4.32337 13.4373 4.32337C14.6418 4.32337 15.8999 4.53924 15.8999 4.53924V7.26174H14.5125C13.1471 7.26174 12.7209 8.11562 12.7209 8.99149V11.0677H15.7706L15.2839 14.266H12.7195V22.0004C17.9775 21.1699 22.0007 16.5911 22.0007 11.0677Z" fill="#E63946"/>
</g>
<defs>
<clipPath id="clip0">
<rect width="22" height="22" fill="white"/>
</clipPath>
</defs>
</svg>
