<svg width="122" height="140" viewBox="0 0 122 140" fill="none" xmlns="http://www.w3.org/2000/svg">
<path d="M3.44202 2.6776L38.3283 76.1202L57.0681 115.519L66.9279 136.175C69.8785 133.023 71.4997 128.104 73.5477 124.317C78.0203 116.045 84.5934 106.964 87.1975 97.9235H87.9624L92.6592 106.721L103.643 125.847H104.025L95.6113 100.219L92.3892 89.5082L94.9302 84.153L100.803 73.0601L118.94 38.6339L87.5799 29.2912L33.6552 13.388L41.2054 29.4536L60.1621 69.235L67.3104 84.5355C70.1806 82.6926 72.3839 77.267 73.8119 74.2077L77.8414 81.6957L75.2469 87.2131L67.6928 101.366L60.5445 86.0656L38.9563 40.5465L28.9726 19.5082L24.6152 10.9778L18.3574 8.26241L3.44202 2.6776Z" fill="#F1FAEE"/>
<path d="M63.1035 38.6339L71.1348 55.847H71.8997L77.2539 45.5191L85.2853 68.4699L95.9937 48.1967C85.4807 44.8344 74.0184 40.2401 63.1035 38.6339Z" fill="#1D3557"/>
</svg>
