<svg width="22" height="22" viewBox="0 0 22 22" fill="none" xmlns="http://www.w3.org/2000/svg">
<path d="M6.91075 20.625C15.213 20.625 19.7546 13.7459 19.7546 7.79076C19.7546 7.59826 19.7546 7.40301 19.7464 7.21051C20.6306 6.57043 21.3937 5.77797 22 4.87026C21.1741 5.23443 20.2988 5.47444 19.4026 5.58251C20.3466 5.01826 21.0536 4.13046 21.3923 3.08413C20.5054 3.60955 19.5346 3.9784 18.5226 4.17451C17.8423 3.44991 16.9419 2.96989 15.9611 2.8088C14.9803 2.6477 13.9737 2.81452 13.0973 3.28342C12.2209 3.75232 11.5236 4.49712 11.1134 5.40246C10.7031 6.30781 10.6029 7.32316 10.8281 8.29126C9.03339 8.20127 7.27762 7.73503 5.67468 6.92278C4.07175 6.11053 2.65744 4.97042 1.5235 3.57638C0.947843 4.57062 0.772164 5.74668 1.03214 6.86575C1.29211 7.98481 1.96825 8.96299 2.92325 9.60163C2.20762 9.57732 1.50772 9.38515 0.88 9.04063V9.10251C0.881234 10.144 1.24205 11.1532 1.90145 11.9594C2.56086 12.7656 3.4784 13.3195 4.499 13.5273C4.11161 13.634 3.71144 13.6872 3.30963 13.6854C3.02635 13.6862 2.74365 13.66 2.46537 13.607C2.75383 14.5036 3.3155 15.2875 4.07171 15.8489C4.82793 16.4103 5.74081 16.7212 6.6825 16.7379C5.08276 17.9944 3.10668 18.6758 1.0725 18.6725C0.714066 18.674 0.355882 18.6534 0 18.6106C2.06458 19.9269 4.46228 20.6258 6.91075 20.625Z" fill="#E63946"/>
</svg>
